<?xml version="1.0" encoding="UTF-8" ?>
<!DOCTYPE svg PUBLIC "-//W3C//DTD SVG 1.1//EN" "http://www.w3.org/Graphics/SVG/1.1/DTD/svg11.dtd">
<svg width="554pt" height="570pt" viewBox="0 0 554 570" version="1.1" xmlns="http://www.w3.org/2000/svg">
<g id="#f7f8f9ff">
</g>
<g id="#7cf5a6ff">
<path fill="#7cf5a6" opacity="1.00" d=" M 124.97 60.48 C 190.93 57.25 256.97 59.07 322.97 59.13 C 334.86 59.30 347.17 58.42 358.50 62.72 C 367.72 66.29 376.45 71.51 383.29 78.71 C 389.98 85.92 396.15 93.73 400.42 102.64 C 422.45 146.62 444.27 190.70 466.40 234.63 C 477.08 255.73 487.39 277.02 497.79 298.25 C 500.14 303.38 503.45 308.29 504.04 314.03 C 506.16 332.18 493.96 350.94 476.51 356.36 C 470.51 358.22 464.15 357.72 457.96 357.90 C 432.63 358.25 407.29 358.18 381.96 357.83 C 380.34 357.76 378.67 357.62 377.18 356.96 C 361.79 322.27 343.76 288.84 327.15 254.73 C 318.36 235.42 302.30 218.85 281.97 211.94 C 270.08 207.85 257.36 208.85 245.01 208.56 C 226.43 208.16 207.85 208.76 189.27 208.55 C 180.85 208.18 172.42 208.49 164.00 208.43 C 160.07 208.32 156.14 207.94 152.21 208.26 C 137.64 176.46 121.42 145.45 106.00 114.05 C 102.73 108.22 100.17 101.82 100.06 95.04 C 100.16 86.30 102.89 77.42 108.70 70.76 C 112.94 65.90 118.35 61.31 124.97 60.48 Z" />
</g>
<g id="#2266e1ff">
<path fill="#2266e1" opacity="1.00" d=" M 25.90 248.99 C 22.99 230.62 37.26 210.58 56.08 208.86 C 84.71 208.50 113.36 208.42 142.00 208.70 C 146.78 208.83 151.59 208.39 156.34 209.12 L 155.99 209.87 L 155.67 210.54 C 170.25 246.66 190.15 280.29 206.51 315.58 C 213.96 332.57 227.66 347.17 245.17 353.84 C 255.57 358.00 266.97 357.71 277.98 357.88 C 311.17 358.08 344.38 358.04 377.57 357.82 C 378.10 357.80 379.14 357.77 379.66 357.76 C 395.00 390.91 412.11 423.20 427.96 456.10 C 431.73 464.51 430.83 474.27 427.79 482.75 C 422.19 496.77 408.50 508.15 392.99 508.21 C 325.63 508.52 258.28 508.57 190.93 508.50 C 173.98 507.33 157.50 499.45 146.00 486.93 C 139.81 480.68 135.64 472.85 131.72 465.08 C 98.12 397.38 64.38 329.75 30.82 262.04 C 28.78 257.87 26.39 253.70 25.90 248.99 Z" />
</g>
<g id="#02aef6ff">
<path fill="#02aef6" opacity="1.00" d=" M 155.99 209.87 C 156.26 209.47 156.82 208.69 157.10 208.30 C 167.80 208.96 178.55 208.53 189.27 208.55 C 207.85 208.76 226.43 208.16 245.01 208.56 C 257.36 208.85 270.08 207.85 281.97 211.94 C 302.30 218.85 318.36 235.42 327.15 254.73 C 343.76 288.84 361.79 322.27 377.18 356.96 L 377.57 357.82 C 344.38 358.04 311.17 358.08 277.98 357.88 C 266.97 357.71 255.57 358.00 245.17 353.84 C 227.66 347.17 213.96 332.57 206.51 315.58 C 190.15 280.29 170.25 246.66 155.67 210.54 L 155.99 209.87 Z" />
</g>
</svg>
