<?xml version="1.0" encoding="UTF-8" ?>
<!DOCTYPE svg PUBLIC "-//W3C//DTD SVG 1.1//EN" "http://www.w3.org/Graphics/SVG/1.1/DTD/svg11.dtd">
<svg width="307pt" height="137pt" viewBox="0 0 307 137" version="1.1" xmlns="http://www.w3.org/2000/svg">
<g id="#fafafaff">
</g>
<g id="#7cf5a6ff">
<path fill="#7cf5a6" opacity="1.00" d=" M 32.74 33.68 C 46.13 33.04 59.61 33.48 73.03 33.45 C 78.13 33.41 82.46 37.12 84.56 41.54 C 90.71 54.04 97.13 66.41 103.20 78.94 C 105.92 83.28 102.04 89.50 97.02 89.45 C 91.57 89.58 86.12 89.56 80.67 89.42 L 80.35 89.42 C 77.46 82.84 73.95 76.57 70.89 70.07 C 68.77 65.43 64.28 61.52 58.98 61.48 C 52.20 61.35 45.40 61.49 38.61 61.47 L 38.15 61.47 C 35.26 55.23 32.04 49.15 29.02 42.98 C 27.17 39.60 29.05 34.83 32.74 33.68 Z" />
</g>
<g id="#f7f8f9">
<path fill="#f7f8f9" opacity="1.00" d=" M 123.53 48.86 C 135.08 48.90 146.63 48.79 158.17 48.91 C 159.19 51.36 158.38 54.54 158.47 57.27 C 154.12 57.19 149.78 57.20 145.43 57.23 C 145.46 71.90 145.41 86.56 145.45 101.23 C 142.54 101.21 139.62 101.22 136.71 101.23 C 136.70 86.55 136.71 71.88 136.71 57.20 C 132.32 57.24 127.93 57.21 123.54 57.24 C 123.48 54.45 123.48 51.65 123.53 48.86 Z" />
<path fill="#f7f8f9" opacity="1.00" d=" M 220.75 48.85 C 223.46 48.86 226.16 48.86 228.87 48.87 C 228.87 66.32 228.87 83.77 228.87 101.22 C 226.16 101.22 223.45 101.23 220.74 101.24 C 220.73 83.78 220.73 66.32 220.75 48.85 Z" />
<path fill="#f7f8f9" opacity="1.00" d=" M 236.22 48.86 C 238.91 48.86 241.61 48.86 244.31 48.85 C 244.35 66.31 244.31 83.76 244.33 101.22 C 241.61 101.24 238.88 101.23 236.17 101.18 C 236.26 83.74 236.16 66.30 236.22 48.86 Z" />
<path fill="#f7f8f9" opacity="1.00" d=" M 166.65 69.02 C 168.98 65.24 173.08 63.00 177.54 63.09 C 177.47 65.97 177.47 68.85 177.52 71.73 C 172.82 71.64 167.85 73.95 166.90 78.98 C 166.28 86.39 166.89 93.86 166.58 101.29 C 163.91 101.20 161.24 101.20 158.57 101.21 C 158.60 88.75 158.56 76.28 158.60 63.82 C 161.28 63.82 163.97 63.80 166.65 63.82 C 166.64 65.55 166.63 67.29 166.65 69.02 Z" />
<path fill="#f7f8f9" opacity="1.00" d=" M 182.33 69.41 C 188.57 62.00 200.64 60.62 208.40 66.43 C 214.33 70.92 216.54 78.68 215.68 85.85 C 205.77 85.98 195.86 85.82 185.96 85.92 C 187.03 89.93 189.70 93.76 193.95 94.76 C 198.59 96.38 203.81 94.53 206.74 90.68 C 209.44 90.66 212.13 90.64 214.83 90.65 C 210.79 102.99 193.57 105.81 184.34 97.67 C 176.23 90.81 175.37 77.38 182.33 69.41 M 192.86 70.92 C 189.10 72.19 186.90 75.71 185.76 79.32 C 193.11 79.38 200.47 79.36 207.82 79.33 C 207.10 72.39 199.14 67.99 192.86 70.92 Z" />
<path fill="#f7f8f9" opacity="1.00" d=" M 263.49 63.72 C 270.33 61.41 278.30 63.60 283.39 68.62 C 290.16 75.42 290.83 87.32 284.79 94.78 C 279.41 101.56 269.31 104.37 261.38 100.58 C 252.00 96.87 246.99 85.26 250.54 75.86 C 252.66 70.10 257.49 65.30 263.49 63.72 M 266.09 71.17 C 261.49 72.18 258.10 76.49 257.57 81.05 C 256.59 87.71 262.19 94.48 268.99 94.41 C 276.04 94.80 282.03 87.82 280.70 80.89 C 280.28 73.96 272.61 69.08 266.09 71.17 Z" />
</g>
<g id="#2266e1ff">
<path fill="#2266e1" opacity="1.00" d=" M 14.76 70.42 C 13.00 66.32 16.56 61.13 21.04 61.47 C 26.74 61.38 32.45 61.47 38.15 61.47 L 38.61 61.47 C 41.36 68.43 45.23 74.87 48.35 81.66 C 50.18 85.88 54.22 89.27 58.96 89.36 C 66.09 89.61 73.22 89.36 80.35 89.42 L 80.67 89.42 C 83.53 95.46 86.66 101.37 89.56 107.39 C 91.90 111.86 88.00 117.71 83.07 117.65 C 71.01 117.77 58.96 117.65 46.90 117.71 C 41.83 118.03 36.75 115.03 34.67 110.38 C 28.07 97.04 21.34 83.77 14.76 70.42 Z" />
</g>
<g id="#02aef6ff">
<path fill="#02aef6" opacity="1.00" d=" M 38.61 61.47 C 45.40 61.49 52.20 61.35 58.98 61.48 C 64.28 61.52 68.77 65.43 70.89 70.07 C 73.95 76.57 77.46 82.84 80.35 89.42 C 73.22 89.36 66.09 89.61 58.96 89.36 C 54.22 89.27 50.18 85.88 48.35 81.66 C 45.23 74.87 41.36 68.43 38.61 61.47 Z" />
</g>
</svg>
