<?xml version="1.0" encoding="UTF-8"?>
<svg id="Capa_2" data-name="Capa 2" xmlns="http://www.w3.org/2000/svg" viewBox="0 0 184.6 182.55">
  <defs>
    <style>
      .cls-1 {
        fill: #fff;
      }

      .cls-2 {
        fill: #1f120d;
      }

      .cls-3 {
        fill: #ffe200;
      }
    </style>
  </defs>
  <g id="Capa_1-2" data-name="Capa 1">
    <g>
      <path class="cls-2" d="m184.6,95.09c0,48.3-39.48,87.45-88.23,87.45S8.19,143.4,8.19,95.09,47.69,7.63,96.37,7.63s88.23,39.16,88.23,87.46"/>
      <path class="cls-1" d="m176.08,88.4c0,48.46-39.26,87.72-87.72,87.72S.65,136.86.65,88.4,39.92.7,88.36.7s87.72,39.28,87.72,87.71"/>
      <path class="cls-2" d="m88.48,176.99C39.68,176.99,0,137.28,0,88.49S39.68,0,88.48,0s88.5,39.69,88.5,88.49-39.68,88.5-88.5,88.5m0-175.46C40.52,1.53,1.54,40.56,1.54,88.49s38.98,86.97,86.94,86.97,86.97-39.01,86.97-86.97S136.44,1.53,88.48,1.53"/>
      <path class="cls-3" d="m145.59,145.62c-2.33.55-14.55,8.93-38.67,8.96-32.5.05-56.52-18.86-56.58-37.43-.06-14.13-.16-74.7-.16-77.77s1.05-7.03,3.63-10.61c3.16-4.39,10.49-10.52,20.48-12.31,10-1.81,22.45.77,28,9.18,0,0-6.57,4.88-6.4,13.15.09,4.78,1.96,8.91,5.14,11.8,3.17,2.93,7.58,4.59,12.4,4.59s9.05-1.55,12.15-4.37c3.12-2.88,5.09-6.95,5.54-11.93.07-.42.07-.86.07-1.34,0-6.42-3.95-14.14-11.33-20.36-7.38-6.17-20.44-11.67-32.5-11.28-2.51.07-4.84.19-4.84.19C39.74,9.15,5.88,44.93,5.88,88.49s37.04,82.63,82.6,82.63c22.74,0,43.36-9.24,58.34-24.17,0,0-1.11-1.42-1.23-1.34"/>
      <path class="cls-2" d="m145.59,145.62c-2.33.55-14.55,8.93-38.67,8.96-32.5.05-56.52-18.86-56.58-37.43.05,0-.16-74.85-.16-77.77s1.05-7.03,3.63-10.61c3.16-4.39,10.49-10.52,20.48-12.31,10-1.81,22.45.77,28,9.19,0,0-6.57,4.9-6.38,13.15.08,4.78,1.95,8.91,5.12,11.8,3.17,2.93,7.58,4.59,12.4,4.59s9.05-1.55,12.15-4.37c3.12-2.88,5.09-6.95,5.54-11.93.07-.42.07-.86.07-1.34,0-6.42-3.95-14.14-11.33-20.36-7.38-6.17-20.44-11.67-32.5-11.28-2.51.07-4.84.19-4.84.19C39.74,9.13,5.88,44.93,5.88,88.49s37.04,82.63,82.6,82.63c22.74,0,43.36-9.24,58.34-24.17,0,0-1.11-1.42-1.23-1.34m-57.11,23.68c-44.55,0-80.82-36.25-80.82-80.81S40.85,10.85,82.71,7.88c2.16-.08,2.47-.18,4.54-.17,13.54.04,24.41,4.97,31.45,10.85,7.09,5.89,10.75,13.29,10.69,18.97,0,.41,0,.79-.03,1.16-.42,4.58-2.24,8.26-4.97,10.76-2.77,2.52-6.52,3.93-10.95,3.93-8.83-.04-15.75-6.06-15.75-14.58,0-5.07,3.29-10.1,7.13-12.92,0,0-8.47-14.62-31.11-10.86-9.96,1.67-17.92,7.91-21.38,12.75-3.42,4.81-3.88,9.36-3.88,11.61v77.77c0,23.99,31.31,39.11,57.41,39.11,16.15,0,25.02-2.48,35.68-6.88-14.19,12.38-32.75,19.93-53.06,19.93"/>
      <path class="cls-3" d="m105.78,150.05c-.8,0-1.27-.03-1.27-.03l-1.28-.05,1.74-4.37.23-41.29,9.05-.04v-26.02h-8.52l-.25-18.1,1.28.57c1.23.57,3.23.84,5.96.84,10.31,0,27.27-4.13,27.41-4.18,3.31-1.02,3.93-10.44,1.59-24.53-.33-1.84.45-4.74.52-5.07l.39-1.46,1.1,1.04c40.27,37.4,23.56,85.2,23.39,85.68-10.43,31.24-42.19,36.59-60.21,37h-1.15"/>
      <path class="cls-2" d="m143.75,27.37l-1.1-1.04v.04c-2.94-2.99-7.32-6.31-14-9.75l-.68,1.4s14.6,14.92,5.63,31.68c0,0-8.36,14.87-29.53,9.84,0,0-17.31-5.52-16.21-21.92,0-.04.03-.07.03-.07.05-.72.16-1.41.23-2.06.04-.32.09-.61.14-.91.72-4.54,2.16-8.33,5.51-10.52-6.82-8.22-34.61-4.08-38.09,11.91,0-.04-.5,3.33-.5,8.18v73.37c0,10.58,17.46,32.55,50.11,32.55.12,0,.22-.03.31-.03h1.34c18.02-.4,49.78-5.76,60.21-37,.18-.48,16.89-48.28-23.39-85.68m-38.01,50.87h0s6.34,0,6.34,0v26.04l-6.87.02h-2.51v44.43s.03.02.11.02c-1.46-.22-3.21-.6-5.2-1.13h.31v-47.28h10.58v-17.97h-10.58v-23.8c1.47.94,3.12,1.77,5,2.53v17.14h2.82Zm-35.76,37.73v-63.24s-1.94-22.08,16.42-16.76c-.03-.01-.18,2.47-.05,2.51v1.06s-.71,10.34,9.74,17.86v26.77h10.58v14.34h-10.58v48.69c-10.88-3.19-26.11-11.26-26.11-31.24m95.44-3.54c-10.02,30-40.54,35.32-58.14,35.77v-41.07h10.11v-30.78h-9.51v-12.51l1.05-.09s15.28,10.81,27.41,3.54c11.19-6.72,16.11-20.08,10.98-33.8,33.17,35.73,18.26,78.47,18.09,78.93"/>
    </g>
  </g>
</svg>