<?xml version="1.0" encoding="UTF-8"?>
<svg id="Capa_2" data-name="Capa 2" xmlns="http://www.w3.org/2000/svg" viewBox="0 0 730.33 182.55">
  <defs>
    <style>
      .cls-1 {
        fill: #fff;
      }

      .cls-2 {
        fill: #1f120d;
      }

      .cls-3 {
        fill: #ffe200;
      }
    </style>
  </defs>
  <g id="Capa_1-2" data-name="Capa 1">
    <g>
      <g>
        <path class="cls-2" d="m184.6,95.09c0,48.3-39.48,87.45-88.23,87.45S8.19,143.4,8.19,95.09,47.69,7.63,96.37,7.63s88.23,39.16,88.23,87.46"/>
        <path class="cls-1" d="m176.08,88.4c0,48.46-39.26,87.72-87.72,87.72S.65,136.86.65,88.4,39.92.7,88.36.7s87.72,39.28,87.72,87.71"/>
        <path class="cls-2" d="m88.48,176.99C39.68,176.99,0,137.28,0,88.49S39.68,0,88.48,0s88.5,39.69,88.5,88.49-39.68,88.5-88.5,88.5m0-175.46C40.52,1.53,1.54,40.56,1.54,88.49s38.98,86.97,86.94,86.97,86.97-39.01,86.97-86.97S136.44,1.53,88.48,1.53"/>
        <path class="cls-3" d="m145.59,145.62c-2.33.55-14.55,8.93-38.67,8.96-32.5.05-56.52-18.86-56.58-37.43-.06-14.13-.16-74.7-.16-77.77s1.05-7.03,3.63-10.61c3.16-4.39,10.49-10.52,20.48-12.31,10-1.81,22.45.77,28,9.18,0,0-6.57,4.88-6.4,13.15.09,4.78,1.96,8.91,5.14,11.8,3.17,2.93,7.58,4.59,12.4,4.59s9.05-1.55,12.15-4.37c3.12-2.88,5.09-6.95,5.54-11.93.07-.42.07-.86.07-1.34,0-6.42-3.95-14.14-11.33-20.36-7.38-6.17-20.44-11.67-32.5-11.28-2.51.07-4.84.19-4.84.19C39.74,9.15,5.88,44.93,5.88,88.49s37.04,82.63,82.6,82.63c22.74,0,43.36-9.24,58.34-24.17,0,0-1.11-1.42-1.23-1.34"/>
        <path class="cls-2" d="m145.59,145.62c-2.33.55-14.55,8.93-38.67,8.96-32.5.05-56.52-18.86-56.58-37.43.05,0-.16-74.85-.16-77.77s1.05-7.03,3.63-10.61c3.16-4.39,10.49-10.52,20.48-12.31,10-1.81,22.45.77,28,9.19,0,0-6.57,4.9-6.38,13.15.08,4.78,1.95,8.91,5.12,11.8,3.17,2.93,7.58,4.59,12.4,4.59s9.05-1.55,12.15-4.37c3.12-2.88,5.09-6.95,5.54-11.93.07-.42.07-.86.07-1.34,0-6.42-3.95-14.14-11.33-20.36-7.38-6.17-20.44-11.67-32.5-11.28-2.51.07-4.84.19-4.84.19C39.74,9.13,5.88,44.93,5.88,88.49s37.04,82.63,82.6,82.63c22.74,0,43.36-9.24,58.34-24.17,0,0-1.11-1.42-1.23-1.34m-57.11,23.68c-44.55,0-80.82-36.25-80.82-80.81S40.85,10.85,82.71,7.88c2.16-.08,2.47-.18,4.54-.17,13.54.04,24.41,4.97,31.45,10.85,7.09,5.89,10.75,13.29,10.69,18.97,0,.41,0,.79-.03,1.16-.42,4.58-2.24,8.26-4.97,10.76-2.77,2.52-6.52,3.93-10.95,3.93-8.83-.04-15.75-6.06-15.75-14.58,0-5.07,3.29-10.1,7.13-12.92,0,0-8.47-14.62-31.11-10.86-9.96,1.67-17.92,7.91-21.38,12.75-3.42,4.81-3.88,9.36-3.88,11.61v77.77c0,23.99,31.31,39.11,57.41,39.11,16.15,0,25.02-2.48,35.68-6.88-14.19,12.38-32.75,19.93-53.06,19.93"/>
        <path class="cls-3" d="m105.78,150.05c-.8,0-1.27-.03-1.27-.03l-1.28-.05,1.74-4.37.23-41.29,9.05-.04v-26.02h-8.52l-.25-18.1,1.28.57c1.23.57,3.23.84,5.96.84,10.31,0,27.27-4.13,27.41-4.18,3.31-1.02,3.93-10.44,1.59-24.53-.33-1.84.45-4.74.52-5.07l.39-1.46,1.1,1.04c40.27,37.4,23.56,85.2,23.39,85.68-10.43,31.24-42.19,36.59-60.21,37h-1.15"/>
        <path class="cls-2" d="m143.75,27.37l-1.1-1.04v.04c-2.94-2.99-7.32-6.31-14-9.75l-.68,1.4s14.6,14.92,5.63,31.68c0,0-8.36,14.87-29.53,9.84,0,0-17.31-5.52-16.21-21.92,0-.04.03-.07.03-.07.05-.72.16-1.41.23-2.06.04-.32.09-.61.14-.91.72-4.54,2.16-8.33,5.51-10.52-6.82-8.22-34.61-4.08-38.09,11.91,0-.04-.5,3.33-.5,8.18v73.37c0,10.58,17.46,32.55,50.11,32.55.12,0,.22-.03.31-.03h1.34c18.02-.4,49.78-5.76,60.21-37,.18-.48,16.89-48.28-23.39-85.68m-38.01,50.87h0s6.34,0,6.34,0v26.04l-6.87.02h-2.51v44.43s.03.02.11.02c-1.46-.22-3.21-.6-5.2-1.13h.31v-47.28h10.58v-17.97h-10.58v-23.8c1.47.94,3.12,1.77,5,2.53v17.14h2.82Zm-35.76,37.73v-63.24s-1.94-22.08,16.42-16.76c-.03-.01-.18,2.47-.05,2.51v1.06s-.71,10.34,9.74,17.86v26.77h10.58v14.34h-10.58v48.69c-10.88-3.19-26.11-11.26-26.11-31.24m95.44-3.54c-10.02,30-40.54,35.32-58.14,35.77v-41.07h10.11v-30.78h-9.51v-12.51l1.05-.09s15.28,10.81,27.41,3.54c11.19-6.72,16.11-20.08,10.98-33.8,33.17,35.73,18.26,78.47,18.09,78.93"/>
      </g>
      <g>
        <path class="cls-2" d="m385.2,85.41h-5.41v-9.73h5.3l.12-4.2c.14-9.08,4.54-12.06,13.21-12.06h5.87v9.75h-2.83c-1.51,0-2.87.43-2.87,1.65v4.85h5.7v9.73h-5.7v37.72h-13.38v-37.72Z"/>
        <path class="cls-2" d="m222.93,81.66v-4.05c0-5.41-1.94-8.24-4.73-8.24-4.59-.09-5.71,2.47-5.71,6.63l-.09,31.51c0,3.56,1.44,5.68,5.31,5.68,5.06,0,5.48-5.26,5.48-9.18v-5.77h14.83v7.81c0,10.95-6.23,18.6-21.38,18.6-13.66,0-18.97-7.3-18.97-20.3v-26.16c0-13.84,6.32-20.3,19.9-20.3,12.62,0,20.21,5.44,20.21,18.44v5.34h-14.83Z"/>
        <path class="cls-2" d="m244.75,90.51c0-12.24,7.14-16.31,17.51-16.31,11.8,0,17.53,5.6,17.53,16.31v19.36c-.67,10.79-7.32,14.78-17.53,14.78-9.58,0-17.51-3.89-17.51-14.78v-19.36Zm13.4,20.2c.25,2.74,1.34,4.17,4.11,4.17s3.89-1.43,4.14-4.17v-21.25c0-3.04-1.02-5.48-4.14-5.48s-4.11,2.45-4.11,5.48v21.25Z"/>
        <rect class="cls-2" x="288.39" y="59.43" width="13.41" height="63.69"/>
        <path class="cls-2" d="m307.77,85.33v-9.77h5.3v-13.61h13.39v13.61h6.42v9.77h-6.42v25.07c0,2.7,1.19,3.32,2.95,3.32,1.53-.26,2.03-.18,3.47-.18v9.51c-2.86.41-5.64.76-8.58.76-7.27,0-11.23-3.74-11.23-10.96v-27.52h-5.3Z"/>
        <path class="cls-2" d="m351.42,101.55v8.32c0,2.63,1.16,4.83,4.11,5.01,4.99.27,4.48-4.24,4.75-8.24h13.26c.71,12.24-5.86,17.84-17.49,18.01-9.62.08-18.05-3.89-18.05-14.78v-19.36c0-12.24,7.66-16.22,18.05-16.31,9.35-.08,18.02,3.48,18.02,13.76v13.58h-22.66Zm9.29-8.92v-4.66c0-1.72-1.12-4.84-4.58-4.84-3.8,0-4.71,3.06-4.71,6.36v3.14h9.29Z"/>
        <path class="cls-2" d="m410.04,59.43h13.4v11.47h-13.4v-11.47Zm0,16.13h13.4v47.56h-13.4v-47.56Z"/>
        <path class="cls-2" d="m445,75.55v5.99h.18c1.27-3.67,5.14-7.33,9.35-7.33,6.32,0,11.96,3.48,11.96,9.93v38.97h-13.39v-33.95c-.17-2.21-1.01-4.1-3.56-3.9-2.36.07-3.59,1.46-3.59,3.9v33.95h-13.4v-47.56h12.45Z"/>
        <path class="cls-2" d="m496.39,118.88c-3.35,3.72-6.23,5.77-11.52,5.77-7.57,0-12.31-5.19-12.31-12.74,0-10.8,5.82-14.18,11.73-16.14,5.79-1.94,11.6-2.56,11.6-7.64,0-2.63-1.48-4.94-4.22-4.94-4.86,0-4.86,3.39-5.11,7.4h-13.4c-.26-5.94,1.51-10.01,4.78-12.63,3.31-2.66,7.95-3.76,13.33-3.76,13.23,0,18.02,4.07,18.02,14.52v29.12c0,1.8.52,3.6,1.1,5.26h-13.04l-.96-4.23Zm-.51-18.85c-2.68,1.45-5,2.2-6.74,3.49-1.64,1.17-3.1,2.89-3.1,6.1,0,2.99,1.75,5.08,4.95,5.08,3.95,0,4.79-4.14,4.89-7.19v-7.48Z"/>
        <path class="cls-2" d="m529.26,75.55v5.99h.18c1.26-3.67,5.13-7.33,9.33-7.33,6.33,0,11.96,3.48,11.96,9.93v38.97h-13.37v-33.95c-.19-2.21-1.04-4.1-3.54-3.9-2.36.07-3.63,1.46-3.63,3.9v33.95h-13.41v-47.56h12.48Z"/>
        <path class="cls-2" d="m580.57,93.21l-.08-.83c-.25-1.78-.19-3.65-.53-5.43-.57-1.96-1.57-2.97-3.6-2.97-3.44,0-4.02,2.74-4.02,5.77v19.62c0,2.95.83,5.51,4.26,5.51,4.98,0,4.15-7.45,4.15-11.03h12.99c0,2.79-.36,8.77-1.12,11.3-1.76,5.93-6.84,8.65-12.66,9.26-1.21.08-2.42.24-4.44.24-9.61,0-16.63-3.89-16.63-14.78v-19.36c0-12.24,6.25-16.31,16.63-16.31,13.23.14,18.44,5.94,17.68,19h-12.63Z"/>
        <path class="cls-2" d="m601.95,59.43h13.42v11.47h-13.42v-11.47Zm0,16.13h13.42v47.56h-13.42v-47.56Z"/>
        <path class="cls-2" d="m636.91,101.55v8.32c0,2.63,1.22,4.83,4.12,5.01,4.98.27,4.5-4.24,4.75-8.24h13.28c.68,12.24-5.87,17.84-17.51,18.01-9.61.08-18.01-3.89-18.01-14.78v-19.36c0-12.24,7.64-16.22,18.01-16.31,9.35-.08,18.05,3.48,18.05,13.76v13.58h-22.69Zm9.29-8.92v-4.66c0-1.72-1.11-4.84-4.54-4.84-3.8,0-4.74,3.06-4.74,6.36v3.14h9.29Z"/>
        <path class="cls-2" d="m678.46,75.55v7.22h.17c1.52-5.09,4.82-8.57,10.35-8.57v15.28c-1.33-.27-2.67-.33-4.02-.33-3.78,0-5.3.75-5.54,4.67v29.28h-13.41v-47.56h12.46Z"/>
        <path class="cls-2" d="m716.38,118.88c-3.38,3.72-6.24,5.77-11.55,5.77-7.57,0-12.28-5.19-12.28-12.74,0-10.8,5.79-14.18,11.71-16.14,5.82-1.94,11.62-2.56,11.62-7.64,0-2.63-1.49-4.94-4.22-4.94-4.89,0-4.89,3.39-5.14,7.4h-13.38c-.26-5.94,1.49-10.01,4.81-12.63,3.29-2.66,7.92-3.76,13.32-3.76,13.2,0,18.02,4.07,18.02,14.52v29.12c0,1.8.49,3.6,1.07,5.26h-13.03l-.92-4.23Zm-.51-18.85c-2.69,1.45-5.07,2.2-6.75,3.49-1.66,1.17-3.11,2.89-3.11,6.1,0,2.99,1.77,5.08,4.98,5.08,3.96,0,4.83-4.14,4.89-7.19v-7.48Z"/>
      </g>
    </g>
  </g>
</svg>